<svg xmlns="http://www.w3.org/2000/svg" viewBox="0 0 500 500"><g id="freepik--background-complete--inject-138"><rect x="30.43" y="145.12" width="121.94" height="197.92" style="fill:#dbdbdb"></rect><circle cx="91.4" cy="280.83" r="49.07" transform="translate(-203 304.21) rotate(-76.51)" style="fill:#ebebeb"></circle><circle cx="91.4" cy="280.83" r="35.58" style="fill:#dbdbdb"></circle><circle cx="70.53" cy="191.48" r="27.86" style="fill:#ebebeb"></circle><circle cx="70.53" cy="191.48" r="16.1" style="fill:#dbdbdb"></circle><circle cx="125.03" cy="179.63" r="16" style="fill:#ebebeb"></circle><circle cx="125.03" cy="179.63" r="9.25" transform="translate(-72.26 274.36) rotate(-80.81)" style="fill:#dbdbdb"></circle><rect x="347.63" y="145.12" width="121.94" height="197.92" style="fill:#dbdbdb"></rect><circle cx="408.6" cy="280.83" r="49.07" transform="translate(39.72 612.12) rotate(-76.43)" style="fill:#ebebeb"></circle><circle cx="408.6" cy="280.83" r="35.58" style="fill:#dbdbdb"></circle><circle cx="387.73" cy="191.48" r="27.86" style="fill:#ebebeb"></circle><circle cx="387.73" cy="191.48" r="16.1" style="fill:#dbdbdb"></circle><circle cx="442.22" cy="179.63" r="16" style="fill:#ebebeb"></circle><circle cx="442.22" cy="179.63" r="9.25" transform="translate(191.88 586.02) rotate(-80.47)" style="fill:#dbdbdb"></circle><polygon points="359.22 295.17 353.2 296.28 351.85 302.63 350.5 296.28 344.48 295.16 350.48 293.7 351.85 287.7 353.22 293.7 359.22 295.17" style="fill:#ebebeb"></polygon><polygon points="414.81 94.98 408.79 96.09 407.44 102.44 406.1 96.09 400.07 94.98 406.07 93.51 407.44 87.52 408.81 93.51 414.81 94.98" style="fill:#ebebeb"></polygon><polygon points="214.92 67.56 208.9 68.68 207.55 75.03 206.21 68.68 200.19 67.56 206.18 66.1 207.55 60.1 208.93 66.1 214.92 67.56" style="fill:#ebebeb"></polygon><polygon points="430.59 112.35 427.22 112.97 426.47 116.52 425.72 112.97 422.35 112.35 425.7 111.53 426.47 108.18 427.24 111.53 430.59 112.35" style="fill:#ebebeb"></polygon><polygon points="104.25 94.98 100.89 95.6 100.14 99.15 99.38 95.6 96.02 94.98 99.37 94.16 100.14 90.81 100.9 94.16 104.25 94.98" style="fill:#ebebeb"></polygon><polygon points="177.72 154.95 174.36 155.58 173.61 159.13 172.85 155.58 169.49 154.95 172.84 154.13 173.61 150.78 174.37 154.13 177.72 154.95" style="fill:#ebebeb"></polygon><polygon points="253.65 33.73 250.28 34.35 249.53 37.9 248.78 34.35 245.41 33.73 248.77 32.91 249.53 29.56 250.3 32.91 253.65 33.73" style="fill:#ebebeb"></polygon><polygon points="326.79 277.17 323.43 277.79 322.68 281.34 321.92 277.79 318.56 277.17 321.91 276.35 322.68 273 323.44 276.35 326.79 277.17" style="fill:#ebebeb"></polygon><polygon points="359.68 122.57 356.31 123.19 355.56 126.74 354.81 123.19 351.44 122.57 354.79 121.75 355.56 118.4 356.33 121.75 359.68 122.57" style="fill:#ebebeb"></polygon><path d="M312,250.9a1,1,0,0,0,0,1.95A1,1,0,0,0,312,250.9Z" style="fill:#ebebeb"></path><path d="M334.23,65.61a1,1,0,0,0,0,2A1,1,0,0,0,334.23,65.61Z" style="fill:#ebebeb"></path><path d="M178.4,123.28a1,1,0,0,0,0,2A1,1,0,0,0,178.4,123.28Z" style="fill:#ebebeb"></path><path d="M158.85,83.43a1,1,0,0,0,0,1.95A1,1,0,0,0,158.85,83.43Z" style="fill:#ebebeb"></path><path d="M428.12,83.71a.69.69,0,0,0,0,1.38A.69.69,0,0,0,428.12,83.71Z" style="fill:#ebebeb"></path><path d="M111.27,105.88a.69.69,0,0,0,0,1.38A.69.69,0,0,0,111.27,105.88Z" style="fill:#ebebeb"></path><path d="M85.56,130.59a.69.69,0,0,0,0,1.38A.69.69,0,0,0,85.56,130.59Z" style="fill:#ebebeb"></path><path d="M291.22,260.51a1.87,1.87,0,0,0,0,3.74A1.87,1.87,0,0,0,291.22,260.51Z" style="fill:#ebebeb"></path><path d="M71.22,116.22a1.87,1.87,0,0,0,0,3.74A1.87,1.87,0,0,0,71.22,116.22Z" style="fill:#ebebeb"></path></g><g id="freepik--Shadow--inject-138"><ellipse cx="250" cy="432.7" rx="224.8" ry="38.02" style="fill:#ebebeb"></ellipse></g><g id="freepik--Table--inject-138"><polygon points="30.43 343.03 85.32 342.79 140.22 342.7 250 342.53 359.78 342.7 414.68 342.79 469.57 343.03 414.68 343.28 359.78 343.37 250 343.53 140.22 343.36 85.32 343.28 30.43 343.03" style="fill:#263238"></polygon></g><g id="freepik--Turntable--inject-138"><polygon points="454.67 415.41 45.33 415.41 79.15 351.42 420.85 351.42 454.67 415.41" style="fill:#5669FF"></polygon><rect x="45.33" y="415.41" width="409.33" height="21.67" style="fill:#5669FF"></rect><rect x="45.33" y="415.41" width="409.33" height="21.67" style="opacity:0.1"></rect><rect x="368.85" y="419.97" width="72.1" height="13.52" style="fill:#263238"></rect><path d="M437.48,423.91a2.07,2.07,0,1,1-2.07-2.12A2.1,2.1,0,0,1,437.48,423.91Z" style="fill:#ebebeb"></path><path d="M436.4,423.91a1,1,0,1,1-1-1A1,1,0,0,1,436.4,423.91Z" style="fill:#263238"></path><path d="M437.48,429.48a2.07,2.07,0,1,1-2.07-2.12A2.1,2.1,0,0,1,437.48,429.48Z" style="fill:#ebebeb"></path><path d="M436.4,429.48a1,1,0,1,1-1-1A1,1,0,0,1,436.4,429.48Z" style="fill:#263238"></path><path d="M431.55,423.91a2.07,2.07,0,1,1-2.06-2.12A2.09,2.09,0,0,1,431.55,423.91Z" style="fill:#ebebeb"></path><path d="M430.48,423.91a1,1,0,1,1-1-1A1,1,0,0,1,430.48,423.91Z" style="fill:#263238"></path><path d="M431.55,429.48a2.07,2.07,0,1,1-2.06-2.12A2.09,2.09,0,0,1,431.55,429.48Z" style="fill:#ebebeb"></path><path d="M430.48,429.48a1,1,0,1,1-1-1A1,1,0,0,1,430.48,429.48Z" style="fill:#263238"></path><path d="M425.63,423.91a2.07,2.07,0,1,1-2.07-2.12A2.1,2.1,0,0,1,425.63,423.91Z" style="fill:#ebebeb"></path><path d="M424.55,423.91a1,1,0,1,1-1-1A1,1,0,0,1,424.55,423.91Z" style="fill:#263238"></path><path d="M425.63,429.48a2.07,2.07,0,1,1-2.07-2.12A2.1,2.1,0,0,1,425.63,429.48Z" style="fill:#ebebeb"></path><path d="M424.55,429.48a1,1,0,1,1-1-1A1,1,0,0,1,424.55,429.48Z" style="fill:#263238"></path><rect x="373.35" y="423.22" width="21.77" height="3.12" style="fill:#a6a6a6"></rect><rect x="373.35" y="427.92" width="21.77" height="3.12" style="fill:#a6a6a6"></rect><rect x="199.93" y="419.97" width="100.13" height="2.93" style="fill:#263238"></rect><rect x="199.93" y="424.87" width="100.13" height="2.93" style="fill:#263238"></rect><rect x="199.93" y="429.77" width="100.13" height="2.93" style="fill:#263238"></rect><rect x="54.52" y="423.79" width="12.48" height="4.9" style="fill:#263238"></rect><rect x="74.41" y="423.79" width="12.48" height="4.9" style="fill:#263238"></rect><path d="M139.47,484.28A95.54,95.54,0,0,1,136.52,500h-1c2-7.07,8-32.45-4.13-39-4.07-2.21-11.94-2.45-21-2-1.53.07-3.1.16-4.69.26-3.48.23-7.07.53-10.62.82-16,1.31-31,2.54-35.54-1.8-7.78-7.48-.43-25.2-.11-26l.9.4c-.08.18-7.4,17.83-.12,24.83,4.2,4,19.75,2.77,34.79,1.53l6-.48c1.6-.12,3.18-.24,4.75-.34,11.09-.73,21.16-.81,26.12,1.88C138,463.43,140.62,471.79,139.47,484.28Z" style="fill:#263238"></path><path d="M130.79,500h-1c2.49-7.31,6-22.08-1.67-32.46-3.74-5.09-12.86-6.92-22.4-8.32l-4-.56-.74-.1c-9-1.27-17.48-2.53-21-6.32-5.75-6.1-.34-20.57-.11-21.19l.91.37c0,.14-5.42,14.48-.1,20.12,3.43,3.65,12.08,4.85,21.22,6.13l3.88.55c1.57.23,3.13.47,4.66.74,8,1.39,15.15,3.44,18.49,8C136.65,477.52,133.32,492.41,130.79,500Z" style="fill:#263238"></path><polygon points="65.05 432.48 54.68 432.48 55.65 424.65 66.03 424.65 65.05 432.48" style="fill:#455a64"></polygon><rect x="57.55" y="432.48" width="4.62" height="1.9" style="fill:#455a64"></rect><polygon points="85.56 432.48 75.18 432.48 75.47 424.65 85.84 424.65 85.56 432.48" style="fill:#455a64"></polygon><polygon points="82.48 434.38 77.86 434.38 78.06 432.48 82.68 432.48 82.48 434.38" style="fill:#455a64"></polygon><path d="M188.83,379.31a11.87,11.87,0,0,1-3,7.44,25.22,25.22,0,0,1-6.11,5.22,57.49,57.49,0,0,1-14.68,6.31,113.42,113.42,0,0,1-31.57,4.14A115.27,115.27,0,0,1,102,398.25,57.94,57.94,0,0,1,87.27,392a25.27,25.27,0,0,1-6.13-5.21,10.87,10.87,0,0,1,0-14.93,25.28,25.28,0,0,1,6.12-5.23,57.22,57.22,0,0,1,14.7-6.31,115.81,115.81,0,0,1,31.58-4.13,114.26,114.26,0,0,1,31.58,4.16,57.82,57.82,0,0,1,14.68,6.32,25.17,25.17,0,0,1,6.1,5.22A11.87,11.87,0,0,1,188.83,379.31Zm0,0a11.81,11.81,0,0,0-3-7.4,25.24,25.24,0,0,0-6.11-5.18,57.44,57.44,0,0,0-14.68-6.24,101.25,101.25,0,0,0-15.63-3.11,134,134,0,0,0-15.9-1,115.74,115.74,0,0,0-31.52,4.1,58,58,0,0,0-14.66,6.25A25,25,0,0,0,81.25,372a10.73,10.73,0,0,0,0,14.74,25.26,25.26,0,0,0,6.09,5.2A56.35,56.35,0,0,0,102,398.16a115.53,115.53,0,0,0,31.54,4.08,134,134,0,0,0,15.9-1,101.61,101.61,0,0,0,15.64-3.11,57.52,57.52,0,0,0,14.67-6.24,25.29,25.29,0,0,0,6.11-5.19A11.81,11.81,0,0,0,188.8,379.31Z" style="fill:#455a64"></path><path d="M82.18,378.35a10.39,10.39,0,0,1,2.89-6.73A24.62,24.62,0,0,1,90.85,367a57,57,0,0,1,13.63-5.47,111.15,111.15,0,0,1,29-3.58,113.34,113.34,0,0,1,29,3.61A58.15,58.15,0,0,1,176.2,367a24.58,24.58,0,0,1,5.8,4.57,9.32,9.32,0,0,1,0,13.53,24.5,24.5,0,0,1-5.8,4.6,56.24,56.24,0,0,1-13.64,5.46,113.51,113.51,0,0,1-29.06,3.57,111.61,111.61,0,0,1-29-3.61,56.6,56.6,0,0,1-13.63-5.47,24.57,24.57,0,0,1-5.78-4.58A10.42,10.42,0,0,1,82.18,378.35Zm0,0a10.28,10.28,0,0,0,2.9,6.7,24.3,24.3,0,0,0,5.79,4.55A56.14,56.14,0,0,0,104.52,395a114.78,114.78,0,0,0,29,3.51,113,113,0,0,0,29-3.54,57,57,0,0,0,13.6-5.41,24.41,24.41,0,0,0,5.77-4.54,9.15,9.15,0,0,0,0-13.33,24.69,24.69,0,0,0-5.76-4.57,55.94,55.94,0,0,0-13.61-5.43,113.59,113.59,0,0,0-29-3.51,115.85,115.85,0,0,0-29,3.53,56.67,56.67,0,0,0-13.61,5.4,24.56,24.56,0,0,0-5.79,4.55A10.28,10.28,0,0,0,82.21,378.35Z" style="fill:#455a64"></path><path d="M181.46,377.93a9.17,9.17,0,0,1-2.83,6.14,23.59,23.59,0,0,1-5.49,4.06,55.81,55.81,0,0,1-12.71,4.81,109,109,0,0,1-26.91,3.13,111.35,111.35,0,0,1-26.9-3.16,57.09,57.09,0,0,1-12.72-4.77,23.62,23.62,0,0,1-5.51-4,8.12,8.12,0,0,1,0-12.36,23.44,23.44,0,0,1,5.5-4.06,55.47,55.47,0,0,1,12.73-4.8,111.39,111.39,0,0,1,26.91-3.12,109.42,109.42,0,0,1,26.91,3.16,55.81,55.81,0,0,1,12.71,4.81,23.38,23.38,0,0,1,5.49,4.06A9.17,9.17,0,0,1,181.46,377.93Zm0,0a9.06,9.06,0,0,0-2.84-6.1,23.26,23.26,0,0,0-5.49-4,55.58,55.58,0,0,0-12.71-4.73A113.55,113.55,0,0,0,133.52,360a111.52,111.52,0,0,0-26.86,3.09A56.61,56.61,0,0,0,94,367.85a23.39,23.39,0,0,0-5.47,4,8,8,0,0,0,0,12.14,23.47,23.47,0,0,0,5.47,4,54.62,54.62,0,0,0,12.69,4.77,111.15,111.15,0,0,0,26.88,3.06,114.24,114.24,0,0,0,26.88-3.08,56.18,56.18,0,0,0,12.7-4.74,23.5,23.5,0,0,0,5.49-4A9.11,9.11,0,0,0,181.43,377.93Z" style="fill:#455a64"></path><path d="M89.77,377.28a7.73,7.73,0,0,1,2.74-5.44,21.79,21.79,0,0,1,5.1-3.47,54,54,0,0,1,11.58-4.07,104.85,104.85,0,0,1,24.33-2.64,107.18,107.18,0,0,1,24.34,2.67,55,55,0,0,1,11.58,4,21.82,21.82,0,0,1,5.12,3.45,7.84,7.84,0,0,1,2.78,5.47,6.21,6.21,0,0,1-.83,3,10.93,10.93,0,0,1-1.93,2.45,21.9,21.9,0,0,1-5.12,3.47,53,53,0,0,1-11.59,4.06,108.44,108.44,0,0,1-24.35,2.63,105.51,105.51,0,0,1-24.34-2.67,53.57,53.57,0,0,1-11.57-4.07,21.79,21.79,0,0,1-5.1-3.47A7.72,7.72,0,0,1,89.77,377.28Zm0,0a7.74,7.74,0,0,0,2.76,5.39,21.57,21.57,0,0,0,5.09,3.43,53.45,53.45,0,0,0,11.58,4,109.77,109.77,0,0,0,24.3,2.57,107.34,107.34,0,0,0,24.3-2.6,54.62,54.62,0,0,0,11.56-4,21.78,21.78,0,0,0,5.08-3.42,6.65,6.65,0,0,0,0-10.73,21.76,21.76,0,0,0-5.08-3.44,52.08,52.08,0,0,0-11.57-4,107.4,107.4,0,0,0-24.31-2.57,110.93,110.93,0,0,0-24.3,2.59,53.48,53.48,0,0,0-11.58,4,21.83,21.83,0,0,0-5.1,3.43A7.77,7.77,0,0,0,89.79,377.28Z" style="fill:#455a64"></path><path d="M172,377.28a6.84,6.84,0,0,1-2.41,4.78,18.84,18.84,0,0,1-4.48,3,46.84,46.84,0,0,1-10.18,3.58A91.65,91.65,0,0,1,133.52,391a94.34,94.34,0,0,1-21.38-2.35A48.67,48.67,0,0,1,102,385.11a19.12,19.12,0,0,1-4.5-3,6,6,0,0,1,0-9.63,18.94,18.94,0,0,1,4.49-3.05,46.55,46.55,0,0,1,10.19-3.57,94.61,94.61,0,0,1,21.4-2.32,92.69,92.69,0,0,1,21.39,2.35,47.4,47.4,0,0,1,10.18,3.59,18.84,18.84,0,0,1,4.48,3A6.85,6.85,0,0,1,172,377.28Zm0,0a6.81,6.81,0,0,0-2.42-4.75,19.33,19.33,0,0,0-4.48-3A46.9,46.9,0,0,0,154.88,366a97.06,97.06,0,0,0-21.36-2.25,94.15,94.15,0,0,0-21.35,2.29A47.49,47.49,0,0,0,102,369.57a19.06,19.06,0,0,0-4.47,3,5.82,5.82,0,0,0,0,9.41,18.78,18.78,0,0,0,4.46,3,45.71,45.71,0,0,0,10.16,3.55,94.71,94.71,0,0,0,21.36,2.25,97.7,97.7,0,0,0,21.36-2.28A46.9,46.9,0,0,0,165.05,385a19.33,19.33,0,0,0,4.48-3A6.77,6.77,0,0,0,172,377.28Z" style="fill:#455a64"></path><path d="M99.81,376.93a6,6,0,0,1,2.1-4.2,17.15,17.15,0,0,1,3.93-2.67,41,41,0,0,1,8.93-3.14,80,80,0,0,1,18.75-2.05,83.28,83.28,0,0,1,18.75,2.07,43.06,43.06,0,0,1,8.94,3.11,16.55,16.55,0,0,1,3.94,2.66,5.25,5.25,0,0,1,0,8.46,16.93,16.93,0,0,1-3.94,2.68,41.26,41.26,0,0,1-8.94,3.13,83.47,83.47,0,0,1-18.77,2A81.17,81.17,0,0,1,114.76,387a42.24,42.24,0,0,1-8.92-3.15,16.88,16.88,0,0,1-3.93-2.68A6,6,0,0,1,99.81,376.93Zm0,0a5.94,5.94,0,0,0,2.12,4.15,16.71,16.71,0,0,0,3.93,2.64,40.92,40.92,0,0,0,8.92,3.07,85.42,85.42,0,0,0,18.72,2,83.53,83.53,0,0,0,18.72-2,41.9,41.9,0,0,0,8.9-3.09,16.42,16.42,0,0,0,3.92-2.63,5.1,5.1,0,0,0,0-8.24,16.57,16.57,0,0,0-3.91-2.66,40.26,40.26,0,0,0-8.91-3.11,83.65,83.65,0,0,0-18.73-2,86.67,86.67,0,0,0-18.72,2,41,41,0,0,0-8.92,3.08,16.67,16.67,0,0,0-3.93,2.63A6,6,0,0,0,99.83,376.93Z" style="fill:#455a64"></path><path d="M133.55,375.6,92.11,360.91a99.63,99.63,0,0,1,20.61-5.2Z" style="fill:#fff;opacity:0.1"></path><path d="M133.55,375.6l-59.14-2.17a20.15,20.15,0,0,1,4.87-5.49Z" style="fill:#fff;opacity:0.2"></path><path d="M191,387.29c-4.32,5.18-12.67,9.59-23.5,12.6h0L133.55,375.6Z" style="fill:#fff;opacity:0.1"></path><ellipse cx="133.52" cy="376.46" rx="24.81" ry="10.62" style="fill:#5669FF"></ellipse><path d="M135.44,376.46h-3.83v-4.55a1.92,1.92,0,0,1,1.91-1.92h0a1.92,1.92,0,0,1,1.92,1.92Z" style="fill:#ebebeb"></path><path d="M421.77,379.31a11.86,11.86,0,0,1-2.94,7.44,25.22,25.22,0,0,1-6.11,5.22A57.64,57.64,0,0,1,398,398.28a113.42,113.42,0,0,1-31.57,4.14,115.27,115.27,0,0,1-31.56-4.17,58.16,58.16,0,0,1-14.7-6.27,25.66,25.66,0,0,1-6.13-5.21,10.88,10.88,0,0,1,0-14.93,25.09,25.09,0,0,1,6.12-5.23,56.92,56.92,0,0,1,14.7-6.31,115.81,115.81,0,0,1,31.58-4.13A114.19,114.19,0,0,1,398,360.33a57.51,57.51,0,0,1,14.68,6.32,25.22,25.22,0,0,1,6.11,5.22A11.86,11.86,0,0,1,421.77,379.31Zm0,0a11.81,11.81,0,0,0-3-7.4,25.24,25.24,0,0,0-6.11-5.18A57.59,57.59,0,0,0,398,360.49a101.72,101.72,0,0,0-15.63-3.11,134.1,134.1,0,0,0-15.9-1,115.74,115.74,0,0,0-31.52,4.1,58,58,0,0,0-14.66,6.25A25,25,0,0,0,314.2,372a10.71,10.71,0,0,0,0,14.74,25.26,25.26,0,0,0,6.09,5.2,56.07,56.07,0,0,0,14.66,6.27,115.48,115.48,0,0,0,31.54,4.08,134.13,134.13,0,0,0,15.9-1A101.25,101.25,0,0,0,398,398.14a57.44,57.44,0,0,0,14.68-6.24,25.29,25.29,0,0,0,6.11-5.19A11.81,11.81,0,0,0,421.75,379.31Z" style="fill:#455a64"></path><path d="M315.13,378.35a10.34,10.34,0,0,1,2.89-6.73A24.62,24.62,0,0,1,323.8,367a57,57,0,0,1,13.63-5.47,111.15,111.15,0,0,1,29-3.58,113.34,113.34,0,0,1,29,3.61A57.91,57.91,0,0,1,409.14,367a24.43,24.43,0,0,1,5.81,4.57,9.31,9.31,0,0,1,0,13.53,24.45,24.45,0,0,1-5.79,4.6,56.4,56.4,0,0,1-13.64,5.46,113.57,113.57,0,0,1-29.06,3.57,111.73,111.73,0,0,1-29.05-3.61,56.69,56.69,0,0,1-13.62-5.47,24.57,24.57,0,0,1-5.78-4.58A10.37,10.37,0,0,1,315.13,378.35Zm0,0a10.34,10.34,0,0,0,2.91,6.7,24.45,24.45,0,0,0,5.78,4.55A56.46,56.46,0,0,0,337.46,395a114.92,114.92,0,0,0,29,3.51,113,113,0,0,0,29-3.54,57,57,0,0,0,13.6-5.41,24.41,24.41,0,0,0,5.77-4.54,9.17,9.17,0,0,0,0-13.33,24.53,24.53,0,0,0-5.77-4.57,55.71,55.71,0,0,0-13.6-5.43,113.59,113.59,0,0,0-29-3.51,115.85,115.85,0,0,0-29,3.53,56.9,56.9,0,0,0-13.62,5.4,24.71,24.71,0,0,0-5.78,4.55A10.34,10.34,0,0,0,315.15,378.35Z" style="fill:#455a64"></path><path d="M414.4,377.93a9.08,9.08,0,0,1-2.83,6.14,23.18,23.18,0,0,1-5.49,4.06,55.73,55.73,0,0,1-12.7,4.81,109,109,0,0,1-26.91,3.13,111.35,111.35,0,0,1-26.9-3.16,56.9,56.9,0,0,1-12.72-4.77,23.41,23.41,0,0,1-5.51-4,8.12,8.12,0,0,1,0-12.36,23.44,23.44,0,0,1,5.5-4.06,55.57,55.57,0,0,1,12.72-4.8,111.53,111.53,0,0,1,26.92-3.12,109.48,109.48,0,0,1,26.91,3.16,55.56,55.56,0,0,1,12.7,4.81,23.18,23.18,0,0,1,5.49,4.06A9.08,9.08,0,0,1,414.4,377.93Zm0,0a9.06,9.06,0,0,0-2.84-6.1,23.32,23.32,0,0,0-5.5-4,55.33,55.33,0,0,0-12.7-4.73A113.55,113.55,0,0,0,366.47,360a111.4,111.4,0,0,0-26.86,3.09,56.43,56.43,0,0,0-12.69,4.75,23.19,23.19,0,0,0-5.47,4,7.94,7.94,0,0,0,0,12.14,23.27,23.27,0,0,0,5.47,4,54.45,54.45,0,0,0,12.69,4.77,111.15,111.15,0,0,0,26.88,3.06,114.1,114.1,0,0,0,26.87-3.08,56.08,56.08,0,0,0,12.71-4.74,23.71,23.71,0,0,0,5.49-4A9.11,9.11,0,0,0,414.38,377.93Z" style="fill:#455a64"></path><path d="M322.72,377.28a7.73,7.73,0,0,1,2.74-5.44,21.73,21.73,0,0,1,5.09-3.47,54.39,54.39,0,0,1,11.58-4.07,104.94,104.94,0,0,1,24.34-2.64,107.1,107.1,0,0,1,24.33,2.67,54.91,54.91,0,0,1,11.59,4,21.82,21.82,0,0,1,5.12,3.45,7.87,7.87,0,0,1,2.78,5.47,6.32,6.32,0,0,1-.83,3,10.69,10.69,0,0,1-1.94,2.45,21.84,21.84,0,0,1-5.11,3.47,53.36,53.36,0,0,1-11.59,4.06,108.44,108.44,0,0,1-24.35,2.63,105.51,105.51,0,0,1-24.34-2.67,53.65,53.65,0,0,1-11.58-4.07,21.73,21.73,0,0,1-5.09-3.47A7.72,7.72,0,0,1,322.72,377.28Zm0,0a7.76,7.76,0,0,0,2.75,5.39,21.63,21.63,0,0,0,5.1,3.43,53.45,53.45,0,0,0,11.58,4,109.7,109.7,0,0,0,24.3,2.57,107.34,107.34,0,0,0,24.3-2.6,54.62,54.62,0,0,0,11.56-4,22,22,0,0,0,5.08-3.42,6.64,6.64,0,0,0,0-10.73,21.49,21.49,0,0,0-5.07-3.44,52.43,52.43,0,0,0-11.57-4,107.46,107.46,0,0,0-24.31-2.57,111,111,0,0,0-24.31,2.59,53.4,53.4,0,0,0-11.57,4,21.63,21.63,0,0,0-5.1,3.43A7.73,7.73,0,0,0,322.74,377.28Z" style="fill:#455a64"></path><path d="M404.92,377.28a6.8,6.8,0,0,1-2.4,4.78,19,19,0,0,1-4.48,3,46.84,46.84,0,0,1-10.18,3.58A91.65,91.65,0,0,1,366.47,391a94.34,94.34,0,0,1-21.38-2.35,48.67,48.67,0,0,1-10.19-3.55,19.12,19.12,0,0,1-4.5-3,6,6,0,0,1,0-9.63,19.2,19.2,0,0,1,4.5-3.05,46.37,46.37,0,0,1,10.19-3.57,94.55,94.55,0,0,1,21.4-2.32,92.75,92.75,0,0,1,21.39,2.35A47.4,47.4,0,0,1,398,369.45a18.84,18.84,0,0,1,4.48,3A6.8,6.8,0,0,1,404.92,377.28Zm0,0a6.81,6.81,0,0,0-2.42-4.75,19.33,19.33,0,0,0-4.48-3A47.08,47.08,0,0,0,387.83,366a97.06,97.06,0,0,0-21.36-2.25,94,94,0,0,0-21.35,2.29A47.3,47.3,0,0,0,335,369.57a19.06,19.06,0,0,0-4.47,3,5.83,5.83,0,0,0,0,9.41,18.84,18.84,0,0,0,4.47,3,45.71,45.71,0,0,0,10.16,3.55,94.71,94.71,0,0,0,21.36,2.25,97.7,97.7,0,0,0,21.36-2.28A47.08,47.08,0,0,0,398,385a19.33,19.33,0,0,0,4.48-3A6.81,6.81,0,0,0,404.9,377.28Z" style="fill:#455a64"></path><path d="M332.75,376.93a6,6,0,0,1,2.11-4.2,17.15,17.15,0,0,1,3.93-2.67,41.13,41.13,0,0,1,8.92-3.14,80,80,0,0,1,18.76-2.05,83.28,83.28,0,0,1,18.75,2.07,42.78,42.78,0,0,1,8.93,3.11,16.41,16.41,0,0,1,4,2.66,6,6,0,0,1,2.15,4.22,6.11,6.11,0,0,1-2.13,4.24,16.78,16.78,0,0,1-3.95,2.68,41.18,41.18,0,0,1-8.93,3.13,83.47,83.47,0,0,1-18.77,2A81.11,81.11,0,0,1,347.71,387a42.24,42.24,0,0,1-8.92-3.15,16.88,16.88,0,0,1-3.93-2.68A6,6,0,0,1,332.75,376.93Zm0,0a5.9,5.9,0,0,0,2.12,4.15,16.51,16.51,0,0,0,3.93,2.64,40.92,40.92,0,0,0,8.92,3.07,85.42,85.42,0,0,0,18.72,2,83.6,83.6,0,0,0,18.72-2,41.9,41.9,0,0,0,8.9-3.09A16.36,16.36,0,0,0,398,381a5.85,5.85,0,0,0,2.1-4.11A5.93,5.93,0,0,0,398,372.8a17,17,0,0,0-3.91-2.66A40.26,40.26,0,0,0,385.2,367a83.71,83.71,0,0,0-18.73-2,86.61,86.61,0,0,0-18.72,2,41,41,0,0,0-8.92,3.08,16.47,16.47,0,0,0-3.93,2.63A5.94,5.94,0,0,0,332.78,376.93Z" style="fill:#455a64"></path><path d="M366.48,374.44l-59,10.66,0-.07a3.47,3.47,0,0,1-.21-.37c-.18-.33-.35-.66-.5-1a11.75,11.75,0,0,1-.67-2c0-.16-.08-.32-.11-.49a1.16,1.16,0,0,1,0-.18c0-.15,0-.29-.06-.44a9.8,9.8,0,0,1-.09-1.33v0c0-3.35,1.6-6.54,4.5-9.46Z" style="fill:#fff;opacity:0.1"></path><path d="M368.38,376.46l42.33,19.83c-.47.21-1,.42-1.46.62l-1.34.53-1.28.48c-.5.18-1,.36-1.52.53l-.68.23-1.07.34-.54.17c-.88.27-1.78.53-2.68.78l-1.68.44h0Z" style="fill:#fff;opacity:0.1"></path><path d="M391.84,401.88l-1.72.31-1.38.23-.89.14-1.36.2h0l-20-28.32Z" style="fill:#fff;opacity:0.2"></path><path d="M422.31,369.34l-52.39,3.89c.87-.8,20.68-8.62,33.84-13.77C411.82,362.05,418.24,365.44,422.31,369.34Z" style="fill:#fff;opacity:0.1"></path><ellipse cx="366.47" cy="376.46" rx="24.81" ry="10.62" style="fill:#5669FF"></ellipse><path d="M368.38,376.46h-3.82v-4.55a1.91,1.91,0,0,1,1.91-1.92h0a1.91,1.91,0,0,1,1.91,1.92Z" style="fill:#ebebeb"></path><polygon points="215.51 406.79 204.03 406.79 206.04 397.7 217.04 397.7 215.51 406.79" style="fill:#455a64"></polygon><polygon points="231.37 406.79 219.89 406.79 221.24 397.7 232.24 397.7 231.37 406.79" style="fill:#263238"></polygon><polygon points="247.23 406.79 235.75 406.79 236.43 397.7 247.43 397.7 247.23 406.79" style="fill:#455a64"></polygon><polygon points="263.1 406.79 251.62 406.79 251.63 397.7 262.63 397.7 263.1 406.79" style="fill:#263238"></polygon><polygon points="278.96 406.79 267.48 406.79 266.82 397.7 277.82 397.7 278.96 406.79" style="fill:#455a64"></polygon><polygon points="294.82 406.79 283.34 406.79 282.02 397.7 293.01 397.7 294.82 406.79" style="fill:#263238"></polygon><polygon points="217.66 394.03 206.86 394.03 208.88 384.94 219.2 384.94 217.66 394.03" style="fill:#263238"></polygon><polygon points="232.59 394.03 221.79 394.03 223.14 384.94 233.45 384.94 232.59 394.03" style="fill:#455a64"></polygon><polygon points="247.51 394.03 236.71 394.03 237.39 384.94 247.71 384.94 247.51 394.03" style="fill:#263238"></polygon><polygon points="262.44 394.03 251.63 394.03 251.65 384.94 261.97 384.94 262.44 394.03" style="fill:#455a64"></polygon><polygon points="277.36 394.03 266.56 394.03 265.9 384.94 276.22 384.94 277.36 394.03" style="fill:#263238"></polygon><polygon points="292.28 394.03 281.48 394.03 280.16 384.94 290.48 384.94 292.28 394.03" style="fill:#455a64"></polygon><polygon points="216.04 381.64 213.35 381.64 218.23 357.53 220.57 357.53 216.04 381.64" style="fill:#a6a6a6"></polygon><polygon points="215.35 380.51 214.47 380.51 218.79 358.66 219.57 358.66 215.35 380.51" style="fill:#263238"></polygon><polygon points="220 379.38 210.27 379.38 210.99 376.15 220.54 376.15 220 379.38" style="fill:#fff"></polygon><polygon points="230.04 381.64 227.35 381.64 230.46 357.53 232.81 357.53 230.04 381.64" style="fill:#a6a6a6"></polygon><polygon points="229.27 380.51 228.4 380.51 231.11 358.66 231.89 358.66 229.27 380.51" style="fill:#263238"></polygon><polygon points="234.72 370.17 225.47 370.17 225.95 366.94 235.03 366.94 234.72 370.17" style="fill:#fff"></polygon><polygon points="244.06 381.62 241.37 381.62 242.71 357.52 245.06 357.52 244.06 381.62" style="fill:#a6a6a6"></polygon><polygon points="243.21 380.5 242.33 380.5 243.44 358.64 244.22 358.64 243.21 380.5" style="fill:#263238"></polygon><polygon points="247.74 377.22 238.13 377.22 238.37 373.99 247.81 373.99 247.74 377.22" style="fill:#fff"></polygon><polygon points="258.07 381.64 255.38 381.64 254.95 357.53 257.3 357.53 258.07 381.64" style="fill:#a6a6a6"></polygon><polygon points="257.14 380.51 256.26 380.51 255.76 358.66 256.54 358.66 257.14 380.51" style="fill:#263238"></polygon><polygon points="261.61 380.96 251.81 380.96 251.81 377.73 261.45 377.73 261.61 380.96" style="fill:#fff"></polygon><polygon points="272.08 381.64 269.4 381.64 267.19 357.53 269.54 357.53 272.08 381.64" style="fill:#a6a6a6"></polygon><polygon points="271.07 380.51 270.19 380.51 268.09 358.66 268.86 358.66 271.07 380.51" style="fill:#263238"></polygon><polygon points="273.41 363.58 264.51 363.58 264.27 360.35 273.01 360.35 273.41 363.58" style="fill:#fff"></polygon><polygon points="286.1 381.64 283.41 381.64 279.43 357.53 281.78 357.53 286.1 381.64" style="fill:#a6a6a6"></polygon><polygon points="285 380.51 284.12 380.51 280.41 358.66 281.19 358.66 285 380.51" style="fill:#263238"></polygon><polygon points="288.16 373.99 278.71 373.99 278.24 370.75 287.52 370.75 288.16 373.99" style="fill:#fff"></polygon><path d="M194.27,379.18v8.47c0,13.79-27.19,25-60.75,25s-60.74-11.18-60.74-25v-8.47c0,13.79,27.2,25,60.74,25S194.27,393,194.27,379.18Z" style="fill:#263238"></path><path d="M133.53,404.15c-33.55,0-60.75-11.17-60.75-25s27.2-25,60.75-25,60.74,11.18,60.74,25S167.07,404.15,133.53,404.15Z" style="fill:#37474f"></path><path d="M427.22,379.18v8.47c0,13.79-27.2,25-60.75,25s-60.74-11.18-60.74-25v-8.47c0,13.79,27.2,25,60.74,25S427.22,393,427.22,379.18Z" style="fill:#263238"></path><path d="M366.47,404.15c-33.55,0-60.74-11.17-60.74-25s27.19-25,60.74-25,60.75,11.18,60.75,25S400,404.15,366.47,404.15Z" style="fill:#37474f"></path><path d="M427.22,379.19v8.46c0,4.56-3,8.85-8.2,12.53l-8.31-3.89c.58-.25,1.14-.51,1.69-.77l.74-.35a40.09,40.09,0,0,0,7.43-4.62l.65-.54c.22-.18.43-.36.63-.55l.59-.56c.31-.29.6-.59.88-.9l.41-.46c.1-.11.2-.23.29-.35s.26-.31.38-.47.35-.47.51-.7.26-.38.38-.58l0,0,.34-.59c.11-.2.22-.4.32-.61a4.9,4.9,0,0,0,.24-.52,4.24,4.24,0,0,0,.29-.71c.08-.2.15-.41.22-.62s.1-.32.14-.48A10.62,10.62,0,0,0,427.22,379.19Z" style="fill:#263238"></path></g><g id="freepik--Character--inject-138"><path d="M271.59,342.67H192.68c-.65-2.54-1.28-5-1.91-7.5-.72-2.83-1.43-5.59-2.11-8.28-.15-.6-.31-1.2-.46-1.79q-.78-3.09-1.53-6c-.3-1.19-.6-2.36-.89-3.52s-.6-2.34-.89-3.47c-.08-.3-.15-.6-.23-.89l-.24-1c-.1-.4-.2-.78-.3-1.17h0c-.11-.41-.21-.81-.31-1.21-.2-.76-.39-1.51-.57-2.24-.28-1.08-.55-2.14-.81-3.17-.11-.45-.23-.9-.34-1.34-.19-.72-.37-1.42-.54-2.11-.12-.46-.23-.91-.34-1.35q-.71-2.72-1.3-5.1c-.11-.42-.21-.83-.32-1.23-.17-.69-.34-1.35-.5-2q-.17-.6-.3-1.17c-.35-1.36-.67-2.6-.94-3.69-.08-.29-.15-.57-.22-.84-.18-.72-.35-1.36-.49-1.93-.06-.23-.11-.45-.17-.65l-.16-.63c0-.14-.07-.28-.1-.4l-.14-.54q0-.13-.06-.24l-.18-.71h76.81s2.53,8.72,6.58,22.78c.82,2.86,1.71,5.95,2.66,9.23C265.07,319.89,268.21,330.83,271.59,342.67Z" style="fill:#37474f"></path><path d="M205.6,342.67h-2q-4.38-18.14-8.49-36.33-1-4.43-2-8.86l-.18-.83a.12.12,0,0,1,.23-.06c0,.09.05.18.08.27q1.33,4.75,2.65,9.53Q201,324.48,205.6,342.67Z" style="fill:#263238"></path><path d="M250.65,278.51l-3.39,17-2.78,13.92-4.73,23.72-.49,2.43-.81,4.05-.61,3.07H192.67c-.64-2.55-1.28-5.05-1.9-7.5-.72-2.83-1.43-5.59-2.11-8.28-.15-.6-.31-1.2-.46-1.79q-.78-3.09-1.53-6c-.3-1.19-.6-2.36-.89-3.52s-.6-2.34-.89-3.47c-.08-.3-.15-.6-.23-.89l-.24-1c-.1-.4-.2-.78-.3-1.17h0c-.11-.41-.21-.81-.31-1.21-.2-.76-.39-1.51-.57-2.24-.28-1.08-.55-2.14-.81-3.17-.12-.46-.23-.9-.34-1.34-.19-.72-.37-1.42-.54-2.11-.12-.46-.23-.91-.34-1.35q-.71-2.72-1.3-5.1c-.11-.42-.21-.83-.32-1.23-.17-.69-.34-1.35-.5-2q-.17-.6-.3-1.17c-.35-1.36-.67-2.6-.94-3.69-.08-.29-.15-.57-.22-.84-.18-.72-.35-1.36-.49-1.93-.06-.23-.11-.45-.17-.65l-.16-.63c0-.14-.07-.28-.1-.4l-.14-.54q0-.13-.06-.24l-.18-.71Z" style="fill:#263238"></path><path d="M250.66,278.48v0c0,.42-.32,5-1.06,12-.21,2-.46,4.28-.75,6.68-.45,3.79-1,8-1.7,12.39-1.18,7.71-2.72,16.12-4.72,24.34-.71,3-1.49,5.89-2.32,8.76l-99.15,0c1.17-15.11,2.24-28.78,3.09-39.55C145.24,288,146,278.51,146,278.51l89.94,0Z" style="fill:#37474f"></path><path d="M250.45,287.59c-.11,3.55-.26,7.09-.49,10.62-.24,3.83-.59,7.65-1.09,11.47,0,.14,0,.28-.05.42q-.7,5.37-1.61,10.71c-.57,3.32-1,6.9-2.46,10a9.75,9.75,0,0,1-2.32,3.13,6.85,6.85,0,0,1-3.17,1.64,3.83,3.83,0,0,1-.59.1h-.17a.22.22,0,0,1,.11.21c0,1.19,0,2.4-.14,3.58,0,.05,0,.1,0,.15-.12,1-.31,2-.5,3.07h-1.7s0,0,0-.06c.3-1.12.55-2.25.83-3.38s.68-2.28,1-3.45a.23.23,0,0,1,.08-.11,5.29,5.29,0,0,1-5.12-3.21,9.19,9.19,0,0,1-.08-4.66c.31-2,.61-4.06.92-6.09.58-3.73,1.33-7.42,2-11.13l.3-1.69c1.33-7.55,2.72-15.1,4.39-22.58.06-.31.13-.62.2-.93s.38-.15.36.05c-.05.5-.1,1-.16,1.51q-.44,4.31-1,8.58c-.48,3.35-.81,6.72-1.28,10.07-.16,1.14-.32,2.28-.49,3.42-.77,5.51-1.57,11-2.51,16.51-.44,2.55-2,7.12,1.64,7.91a3.74,3.74,0,0,0,2.49-.31,7.82,7.82,0,0,0,3.41-4.31,57.21,57.21,0,0,0,2-9.18q.9-5,1.6-10.09h0q.9-6.31,1.88-12.61.49-3.21,1-6.42l.48-3C250.12,287.32,250.45,287.38,250.45,287.59Z" style="fill:#263238"></path><path d="M162.7,314a50.12,50.12,0,0,0,12.24-1.65c1.84-.47,3.66-1.06,5.47-1.65a14.23,14.23,0,0,0,4.93-2.48c2.78-2.4,4.08-6.17,5.29-9.53a90.47,90.47,0,0,0,3.2-11.57c0-.19.33-.13.33.06a44.49,44.49,0,0,1-1.66,13.13c-1,3.63-2.34,7.67-5.27,10.21s-7.27,3.62-11.21,4.1a51.73,51.73,0,0,1-13.33-.18A.22.22,0,0,1,162.7,314Z" style="fill:#263238"></path><path d="M155.84,287.19q-.33,8.32-.7,16.66-.85,19.41-1.87,38.82h-1.86q1.28-19.46,2.69-38.88.61-8.31,1.26-16.61A.24.24,0,0,1,155.84,287.19Z" style="fill:#263238"></path><path d="M322.82,131.58c-2.09-2.88-16.33-26.18-29.47-34.59-7-4.46-27.49-14.56-30.73-10.66-3,3.56,2,7.7,2,7.7s-9.22-4.36-13.27.63S256,106.22,256,106.22s-9.79-3.79-13.48,1.47,6.17,10.41,6.17,10.41-8.79-3.89-10,1.73c-1.46,6.76,15.55,12.1,22.27,18.32,1.53,1.41,28.87,30.81,28.87,30.81Z" style="fill:#ad6359"></path><path d="M248.68,118.47c12.5,4,17.29,7.85,25.62,17.71.16.19.48,0,.33-.22-7.28-10.4-12.57-16.15-25.79-18.1C248.19,117.76,248.08,118.28,248.68,118.47Z" style="fill:#263238"></path><path d="M255.94,106.6c12.63,5.24,17.86,9.41,27.34,19.1.14.14.38-.08.26-.23C275,115.19,269.61,109.58,256.31,106,255.7,105.84,255.36,106.36,255.94,106.6Z" style="fill:#263238"></path><path d="M265.05,94.52c11.86,6,17.79,10.28,25.79,20.87a.25.25,0,0,0,.41-.27c-7.11-11.59-14.47-17.05-26-21C264.48,93.91,264.3,94.14,265.05,94.52Z" style="fill:#263238"></path><path d="M290.37,179.53s-14.87-7-20.72-11.5-21.5-29.35-16.32-33c6.68-4.75,18.53,7.81,23.53,14.72,0,0,15.44-11,25.9-3.84S290.37,179.53,290.37,179.53Z" style="fill:#ad6359"></path><path d="M255.59,134.29c9.22.06,15.2,9.56,20.55,15.9a.77.77,0,0,0,1.25-.06c6.78-4.18,17.56-8.11,25.27-4.76a.19.19,0,0,0,.18-.34c-7.78-4.71-18.69-1.72-25.82,3.34-5.39-6.59-11.8-15.85-21.43-14.16C255.53,134.22,255.53,134.29,255.59,134.29Z" style="fill:#263238"></path><path d="M241.17,182.65c12.28,17,50.18,62,81.51,79.58,12.18,6.86,26.67,4.64,33.56-1.08,24.32-20.19-26.69-125.73-36.48-133.44-5.29-4.16-42.63,38-36.13,47.83,2.66,4,11.46,16.38,11.46,16.38-.92.54-14.81-12.35-40.53-24C229.94,156.79,233.55,172.09,241.17,182.65Z" style="fill:#ad6359"></path><path d="M332.78,252.61c-1.35-1.9-2.57-3.9-3.82-5.87s-2.58-3.9-3.84-5.87c-2.48-3.91-5.06-7.76-7.55-11.67q-7.49-11.74-14.51-23.73-2-3.36-3.93-6.74c-1.32-2.29-2.75-4.51-4-6.81-.14-.25-.51,0-.38.23,1,2.1,2,4.25,3,6.34s2.16,4.15,3.28,6.2q3.35,6.09,6.91,12.06c4.75,8,9.76,15.78,15.13,23.36,1.5,2.13,3.1,4.2,4.65,6.3s3.34,4.15,4.93,6.28C332.71,252.76,332.84,252.69,332.78,252.61Z" style="fill:#263238"></path><path d="M292.66,189.07l-27.11,27.81s-14.68-17.62-26.6-35.5S231.28,154,259.52,168C283.21,179.71,292.66,189.07,292.66,189.07Z" style="fill:#263238"></path><path d="M267.73,319.55l-134.52-10.2s27.59-106.55,80.5-146.68c6.54-5,20.27-2.68,28.94,2.49,3.1,1.84,13.44,18.89,15.58,34.43S268.12,319.12,267.73,319.55Z" style="fill:#5669FF"></path><path d="M230.2,160.55l-7.82-.6A33,33,0,0,1,230.2,160.55Zm12.45,4.61c-.77-.46-1.57-.89-2.41-1.3l-25.39-1.94a11.21,11.21,0,0,0-1.14.75l-.93.72,30.57,2.33A4.15,4.15,0,0,0,242.65,165.16Zm2.95,3.28-35.7-2.73c-.58.48-1.16,1-1.73,1.49l38.6,3Q246.17,169.22,245.6,168.44Zm2.82,4.38-42.87-3.27c-.53.5-1.06,1-1.58,1.5l45.4,3.47C249.05,173.93,248.73,173.37,248.42,172.82Zm2.35,4.35-49.19-3.76c-.49.5-1,1-1.46,1.51l51.47,3.93C251.32,178.28,251,177.72,250.77,177.17Zm2,4.32L197.9,177.3c-.46.5-.92,1-1.37,1.52l57,4.35C253.29,182.6,253.05,182,252.81,181.49Zm1.75,4.31-60.1-4.59c-.44.5-.86,1-1.28,1.52l62,4.74C255,186.91,254.77,186.35,254.56,185.8Zm1.48,4.28-64.82-5c-.41.5-.81,1-1.21,1.53l66.53,5.08C256.38,191.18,256.21,190.63,256,190.08Zm1.18,4.26-69.06-5.27q-.58.77-1.14,1.53L257.59,196C257.48,195.44,257.36,194.89,257.22,194.34Zm1,5.25-.15-1L185.25,193l-1.09,1.54,74.15,5.66C258.28,200,258.26,199.78,258.23,199.59Zm.38,3.19L182.49,197c-.35.51-.7,1-1,1.54l77.34,5.91C258.73,203.84,258.67,203.29,258.61,202.78ZM259,207l-79.2-6-1,1.55,80.37,6.14C259.15,208.05,259.1,207.51,259,207Zm.41,4.21-82.15-6.28-1,1.55,83.26,6.36C259.55,212.26,259.5,211.72,259.45,211.19Zm.38,4.19-85-6.49-.93,1.56L260,217C259.93,216.46,259.88,215.92,259.83,215.38Zm.37,4.2-87.69-6.7c-.3.52-.6,1-.89,1.56l88.73,6.77Zm.37,4.2-90.32-6.9q-.45.78-.87,1.56l91.33,7C260.66,224.86,260.62,224.32,260.57,223.78Zm.36,4.19-92.88-7.09c-.28.52-.56,1-.83,1.56l93.85,7.17C261,229.06,261,228.51,260.93,228Zm.35,4.2-95.35-7.28-.81,1.56,96.3,7.35C261.37,233.25,261.32,232.71,261.28,232.17Zm.35,4.19-97.75-7.46-.78,1.56L261.76,238C261.72,237.45,261.67,236.9,261.63,236.36Zm.34,4.2L161.9,232.91c-.26.52-.51,1.05-.77,1.57l101,7.71C262.06,241.65,262,241.1,262,240.56Zm.34,4.19L160,236.94l-.73,1.56,103.21,7.89C262.4,245.84,262.35,245.3,262.31,244.75Zm.33,4.2-104.55-8-.72,1.57,105.4,8.05C262.73,250,262.69,249.49,262.64,249Zm.34,4.19L156.26,245l-.69,1.57,107.54,8.21C263.06,254.23,263,253.68,263,253.14Zm.33,4.2L154.5,249c-.23.52-.46,1-.68,1.56L263.43,259Zm.32,4.19-110.86-8.46-.66,1.57,111.65,8.52C263.72,262.62,263.67,262.07,263.63,261.53Zm.33,4.2L151.09,257.1c-.21.52-.42,1-.64,1.57l113.63,8.69Zm.32,4.19-114.82-8.77-.63,1.57,115.57,8.83Zm.31,4.19L147.87,265.2c-.21.52-.41,1.05-.61,1.57l117.46,9C264.68,275.2,264.64,274.66,264.59,274.11Zm.32,4.19-118.58-9.06c-.21.53-.41,1.06-.6,1.58L265,279.93C265,279.39,265,278.85,264.91,278.3Zm.32,4.19L144.81,273.3l-.57,1.58,121.11,9.25Zm.31,4.2-122.2-9.34c-.18.53-.37,1.06-.56,1.59l122.88,9.38Zm.31,4.19-123.94-9.46c-.18.54-.37,1.06-.54,1.58L266,292.51Zm.3,4.19-125.62-9.59c-.19.54-.37,1.06-.54,1.58l126.28,9.64Zm.31,4.19-127.29-9.71c-.18.53-.35,1.06-.52,1.58l127.92,9.77C266.53,300.36,266.49,299.82,266.46,299.26Zm.29,4.2-128.89-9.85q-.26.81-.51,1.59l129.52,9.89C266.83,304.56,266.79,304,266.75,303.46Zm.29,4.19-130.45-10c-.18.55-.34,1.07-.49,1.58l131.06,10C267.12,308.76,267.08,308.21,267,307.65Zm.28,4.19-132-10.08c-.17.56-.33,1.08-.47,1.58l132.54,10.13C267.39,313,267.36,312.41,267.32,311.84Zm.26,4.19L134.17,305.84c-.17.61-.32,1.14-.44,1.59l134,10.22C267.65,317.18,267.62,316.64,267.58,316Z" style="fill:#030402;opacity:0.1"></path><path d="M237,231.5a5.4,5.4,0,1,1-5.9-4.85A5.41,5.41,0,0,1,237,231.5Z" style="fill:#fff"></path><rect x="231.53" y="204.55" width="4.12" height="27.15" transform="translate(-20.01 23.62) rotate(-5.55)" style="fill:#fff"></rect><rect x="243.87" y="196.29" width="4.12" height="7.85" transform="translate(-18.21 24.73) rotate(-5.55)" style="fill:#fff"></rect><polygon points="247.71 197.14 230.58 208.43 230.23 204.82 247.35 193.53 247.71 197.14" style="fill:#fff"></polygon><polygon points="248.37 203.95 231.24 215.24 230.89 211.63 248.01 200.34 248.37 203.95" style="fill:#fff"></polygon><polygon points="251.11 199.03 251.09 198.71 251.06 197.66 251.56 197.64 251.61 198.88 251.11 199.03" style="fill:#263238"></polygon><path d="M233.08,238.14a5.65,5.65,0,0,1-.2-11.3,5,5,0,0,1,1,0l-.74-21.78,18.29-10.47.38,11-.13.11-13.62,7.8.63,18.74a5.64,5.64,0,0,1-5.45,5.85Zm0-10.81h-.2a5.15,5.15,0,0,0,.35,10.29,5.06,5.06,0,0,0,3.59-1.63,5.14,5.14,0,0,0,1.39-3.69l-.65-19.05,13.75-7.88-.35-9.9-17.3,9.91.75,22.12-.31-.07A5,5,0,0,0,233.1,227.33Zm4.37-17.13-.12-3.79,10.18-5.82.13,3.77Zm.39-3.5.09,2.65,9.2-5.27-.09-2.64Z" style="fill:#263238"></path><path d="M196.54,177.24c-37.81,37.94-58.74,92.47-52.82,103.52,9.23,17.2,42.71,38.75,75.51,51.87,6.56,2.62,48.84-44.7,41.77-47.38-14-5.33-63.57-36.25-64.48-36.38-1.94-.28,9.73-37.05,18-59.37C226.09,158.4,212.27,161.46,196.54,177.24Z" style="fill:#ad6359"></path><path d="M248.71,283s25,3.06,37.63,6.53c16.94,4.65,28.49,11.81,33.54,16.73,10.53,10.28,36.43,31.68,28.09,38.58-7.54,6.25-32.18-16.8-32.18-16.8s23.13,31.58,12.66,37.44S300.35,331,300.35,331s23,33,11.3,37.31c-8.88,3.27-26.91-32.39-26.91-32.39s19.61,28.49,10.62,32.25c-9.93,4.15-28.64-27.72-28.64-27.72-24.45,5.71-38.43-1.58-47.76-7.94C216.7,330.93,248.71,283,248.71,283Z" style="fill:#ad6359"></path><path d="M308.49,316.59c2.85,3.61,5.76,7.25,8.28,11.1s4.91,7.8,7.06,11.87c5.28,10,7,17.06,6.86,16.63-3.67-10.06-12.48-24-15-27.84s-4.84-7.82-7.36-11.67C308.27,316.59,308.42,316.51,308.49,316.59Z" style="fill:#263238"></path><path d="M294.41,325.44c3.44,4.77,7,9.38,10.26,14.3s5.84,9.83,8.71,14.94c.22.39-.06.38-.3,0-3.07-5-6.3-9.37-9.43-14.32s-6.07-10-9.36-14.85C294.24,325.44,294.35,325.37,294.41,325.44Z" style="fill:#263238"></path><path d="M281,330.87c5.63,7,10,15.07,14,23.06.21.4-.16.35-.39-.05-4.52-7.75-8-13.87-13.88-22.82C280.62,330.92,280.84,330.72,281,330.87Z" style="fill:#263238"></path><path d="M158.33,223.15l46.5,2.39s7.95-21.5,13.22-42.34-1.34-27.81-23.87-5.76C174.93,196.28,158.33,223.15,158.33,223.15Z" style="fill:#263238"></path><path d="M250.21,124.36c1.51,7.6,8.14,12.69,14.81,11.37s10.85-8.56,9.34-16.17-8.14-12.69-14.81-11.37S248.7,116.75,250.21,124.36Z" style="fill:#5669FF"></path><path d="M246.39,125.61c1.68,8.46,9.05,14.13,16.47,12.65s12.08-9.52,10.4-18-9.05-14.12-16.47-12.65S244.71,117.15,246.39,125.61Z" style="fill:#c7c7c7"></path><path d="M240.2,185.74c-7.22.95-18.23-11.07-22.12-20.29-.26-.63,1.3-6.85,2.84-14.5.92-4.64,1.83-9.83,2.32-14.63.1-1,29.34,10.38,29.34,10.38s-4,9.76-4.78,18.13a11,11,0,0,0,0,2,3.22,3.22,0,0,1,0,.33C248,171,247.18,184.82,240.2,185.74Z" style="fill:#ad6359"></path><path d="M244.71,167a18.73,18.73,0,0,0,3.1.16c0-.13,0-.24,0-.34a11,11,0,0,1,0-2c.8-8.36,4.78-18.11,4.78-18.11s-23.74-9.23-28.51-10.34C224.43,142,227,164.79,244.71,167Z" style="fill:#263238"></path><path d="M217.27,107.25c-2.29,11,6.18,41.32,14.4,47.5,11.92,9,30,8.27,37.3-5.74,7-13.58-4.69-52.92-13.74-58.4C241.89,82.55,220.64,91,217.27,107.25Z" style="fill:#ad6359"></path><path d="M233.88,158s0,0,0,0" style="fill:none;stroke:#f5a79e;stroke-linecap:round;stroke-linejoin:round;stroke-width:0px"></path><path d="M242.75,120.54a27.92,27.92,0,0,0,2.37-1.51c.9-.59,1.68-1,2.13-2a1.46,1.46,0,0,0-.63-1.66,3.62,3.62,0,0,0-3.61.46,5.26,5.26,0,0,0-2.44,2.91A1.55,1.55,0,0,0,242.75,120.54Z" style="fill:#263238"></path><path d="M264.25,114.85a26.36,26.36,0,0,1-2.81-.07,4.54,4.54,0,0,1-2.85-.62,1.45,1.45,0,0,1-.32-1.74A3.61,3.61,0,0,1,261.6,111a5.3,5.3,0,0,1,3.6,1.24A1.54,1.54,0,0,1,264.25,114.85Z" style="fill:#263238"></path><path d="M251,143.52c.61.37,1.26.92,2,.81a5.5,5.5,0,0,0,2.1-1c.06,0,.14,0,.11.08a2.83,2.83,0,0,1-2.36,1.73,2.25,2.25,0,0,1-2-1.45C250.8,143.55,251,143.47,251,143.52Z" style="fill:#263238"></path><path d="M251.78,136.83a7.2,7.2,0,0,0,5.42,2,8.7,8.7,0,0,0,2.56-.47,2.64,2.64,0,0,0,.47-.17l.43-.17a.52.52,0,0,0,.31-.56h0a1.29,1.29,0,0,0-.07-.21v0l0-.18c-.33-1.6-1-4-1-4,.65.16,3.92.8,3.68,0-2-6.79-4.24-14.33-7.67-20.66a.2.2,0,0,0-.37.14c1.67,6.6,4.49,12.86,6.28,19.46a12.67,12.67,0,0,0-3.56-.24c-.21.12,1.47,4.58,1.56,5.31a.17.17,0,0,1,0,.08c-2.59,1-4.79.63-7.8-.57C251.74,136.52,251.61,136.7,251.78,136.83Z" style="fill:#263238"></path><path d="M258.63,137.81a8.62,8.62,0,0,1-2.74,3.37,3.85,3.85,0,0,1-2.25.67c-1.75,0-2.14-1.55-2.14-2.92a9.41,9.41,0,0,1,.28-2.16A11.06,11.06,0,0,0,258.63,137.81Z" style="fill:#263238"></path><path d="M255.89,141.18a3.85,3.85,0,0,1-2.25.67c-1.75,0-2.14-1.55-2.14-2.92C253.31,138.7,255.34,139.5,255.89,141.18Z" style="fill:#ff98b9"></path><path d="M244.45,127.51a4.64,4.64,0,0,1-.25-2.77,2.39,2.39,0,0,1,.82-1.32,2.13,2.13,0,0,1,3,.28,4,4,0,0,1,.76,1.26,5.61,5.61,0,0,1,.32,2.74,11.15,11.15,0,0,0-1-2.44c-.41-.73-1-1.39-1.64-1.42a1.63,1.63,0,0,0-1.63,1.11A7.24,7.24,0,0,0,244.45,127.51Z" style="fill:#263238"></path><path d="M266,122.12a4.65,4.65,0,0,0-1-2.58,2.39,2.39,0,0,0-1.34-.8,2.23,2.23,0,0,0-1.59.29,2.3,2.3,0,0,0-.94,1.31,4.1,4.1,0,0,0-.09,1.47,5.6,5.6,0,0,0,1,2.59,11.27,11.27,0,0,1-.26-2.61,2.42,2.42,0,0,1,.81-2,1.64,1.64,0,0,1,2,.25A7.51,7.51,0,0,1,266,122.12Z" style="fill:#263238"></path><path d="M224.76,121.81c-.69,3.56-2.12,12.32-3.56,13.16-3.28-10.33-5.16-21.82-3.93-27.72a22,22,0,0,1,3.3-7.79C221.34,102.32,225.51,118.07,224.76,121.81Z" style="fill:#263238;opacity:0.2"></path><path d="M228.8,131.91s-8.08-9.18-12.32-6.2,2.61,16.84,8.13,18.22a5.43,5.43,0,0,0,6.91-3.71Z" style="fill:#ad6359"></path><path d="M218.54,129.63a.08.08,0,0,0,0,.15c3.89,1.09,6.23,4.32,8,7.74-1.26-1.25-2.85-1.84-4.54-.31-.09.08,0,.22.12.18a3.36,3.36,0,0,1,3.78.75A17.06,17.06,0,0,1,228,140.9c.21.32.79.07.62-.3,0,0,0,0,0-.08C228.11,135.77,223.69,129.54,218.54,129.63Z" style="fill:#263238"></path><path d="M270.93,131.91s-.07,0-.06,0c.68,7.65-.41,15.38-5.35,21.52a16.67,16.67,0,0,1-4.43,4,.08.08,0,1,0,.08.13,21.23,21.23,0,0,0,4.27-3.13,19.44,19.44,0,0,0,3.23-4.27,23.61,23.61,0,0,0,3.07-11.36A33.94,33.94,0,0,0,270.93,131.91Z" style="fill:#263238"></path><path d="M265.19,106.22c-.31-.94-.64-1.86-1-2.79a30.09,30.09,0,0,0-2.37-5.12s-.1,0-.08,0c.52,1.82,1.27,3.59,1.95,5.35s1.46,3.53,2.1,5.33a.08.08,0,0,0,.15,0C265.73,108.16,265.48,107.13,265.19,106.22Z" style="fill:#263238"></path><path d="M251.31,100.58a11.59,11.59,0,0,1-8.47,7.42,11.81,11.81,0,0,1-11-3.34c-.08-.09-.22,0-.14.12,2.81,3.21,7,5.13,11.31,4.14a11.91,11.91,0,0,0,8.56-8.25C251.62,100.5,251.37,100.4,251.31,100.58Z" style="fill:#263238"></path><path d="M232.13,81.2c-5,.4-9.13,4.37-10.47,9a17,17,0,0,0,0,8.54.09.09,0,0,0,.18,0c-.77-4.55.35-9.82,3.62-13.2A10.46,10.46,0,0,1,237.27,83a10.59,10.59,0,0,1,5.16,4.79.21.21,0,0,0,.37-.18A10.79,10.79,0,0,0,232.13,81.2Z" style="fill:#263238"></path><path d="M269.89,79.4a14,14,0,0,0-8.23-4.9c-4.49-.86-8.47,1-12.38,3a.09.09,0,1,0,.08.16c3.34-1.66,6.82-3.15,10.63-2.73a13.77,13.77,0,0,1,8.32,4,13.38,13.38,0,0,1,.73,17.5,13.58,13.58,0,0,1-9.63,4.84c-.14,0-.17.24,0,.23a13.66,13.66,0,0,0,10.5-22.08Z" style="fill:#263238"></path><path d="M216.94,113.8s-2.66-9-1.35-12.45,6.11-5.94,6.11-5.94.25-8.48,7.15-11.52c6.19-2.74,12.51,1.32,12.51,1.32s5.64-11.9,17.48-10.57c11.23,1.26,15.27,16.22,7.71,24.2-5.31,5.6-16.28,3.16-16.28,3.16-.81.43-7.53,8.93-17,3.65,0,0-4.26,6.79-8.87,4.77C224.4,110.42,220.61,114.25,216.94,113.8Z" style="fill:#263238"></path><path d="M215.74,127s-5.14-16.16-2.55-26.41c2.88-11.41,19.61-19.43,28.17-15.38,0,0-13.42-2.32-21.5,14.51-3.4,7.08,1.47,26.37,1.47,26.37Z" style="fill:#c7c7c7"></path><path d="M233.17,131.52c2.15,8.36-2.06,16.65-9.39,18.53s-15-3.37-17.15-11.72,2.07-16.65,9.4-18.53S231,123.17,233.17,131.52Z" style="fill:#c7c7c7"></path><path d="M229.19,132c1.92,7.51-1.86,15-8.44,16.66s-13.49-3-15.42-10.54,1.85-15,8.44-16.66S227.26,124.53,229.19,132Z" style="fill:#5669FF"></path></g><g id="freepik--Lines--inject-138"><path d="M359.5,333.28c-.77-3.33-1.28-6.67-1.72-10s-.75-6.72-1-10.08-.42-6.74-.48-10.12,0-6.76.21-10.17c.77,3.33,1.29,6.68,1.72,10s.75,6.71,1,10.08.42,6.73.48,10.11S359.76,329.88,359.5,333.28Z" style="fill:#263238"></path><path d="M380.56,343.57c3-1.69,6-3.15,9.11-4.53s6.21-2.65,9.35-3.88,6.33-2.35,9.55-3.38a101.34,101.34,0,0,1,9.8-2.72c-3,1.69-6,3.15-9.11,4.53s-6.21,2.65-9.35,3.88-6.33,2.35-9.55,3.37S383.89,342.84,380.56,343.57Z" style="fill:#263238"></path><path d="M378.4,335.5c3.22-3.67,6.61-7.17,10.05-10.61s7-6.78,10.52-10.1,7.18-6.55,10.88-9.71,7.45-6.27,11.36-9.19c-3.21,3.68-6.6,7.18-10,10.61s-7,6.79-10.52,10.11-7.19,6.54-10.89,9.7S382.32,332.58,378.4,335.5Z" style="fill:#263238"></path><path d="M374.83,326.12c1.72-4.57,3.66-9,5.68-13.47s4.13-8.8,6.29-13.15,4.42-8.66,6.78-12.92,4.76-8.48,7.4-12.6c-1.72,4.58-3.65,9-5.67,13.47s-4.14,8.8-6.3,13.16-4.42,8.65-6.78,12.91S377.47,322,374.83,326.12Z" style="fill:#263238"></path></g><g id="freepik--music-notes--inject-138"><path d="M351,234.15a5.42,5.42,0,1,1-4.36-6.3A5.41,5.41,0,0,1,351,234.15Z" style="fill:#455a64"></path><rect x="349.31" y="206.71" width="4.14" height="27.24" transform="translate(45.18 -59.41) rotate(10.32)" style="fill:#455a64"></rect><path d="M369.63,229.54a5.42,5.42,0,1,1-4.36-6.3A5.4,5.4,0,0,1,369.63,229.54Z" style="fill:#455a64"></path><rect x="367.98" y="202.1" width="4.14" height="27.24" transform="translate(44.65 -62.83) rotate(10.32)" style="fill:#455a64"></rect><polygon points="374.52 202.74 351.14 210.14 351.79 206.56 375.17 199.16 374.52 202.74" style="fill:#455a64"></polygon><polygon points="373.29 209.5 349.91 216.89 350.56 213.31 373.94 205.91 373.29 209.5" style="fill:#455a64"></polygon><path d="M94.56,301.82a5.42,5.42,0,1,1-4.36-6.3A5.41,5.41,0,0,1,94.56,301.82Z" style="fill:#455a64"></path><rect x="92.91" y="274.37" width="4.14" height="27.24" transform="translate(53.15 -12.36) rotate(10.32)" style="fill:#455a64"></rect><path d="M113.23,297.21a5.42,5.42,0,1,1-4.36-6.3A5.42,5.42,0,0,1,113.23,297.21Z" style="fill:#455a64"></path><rect x="111.57" y="269.76" width="4.14" height="27.24" transform="translate(52.62 -15.78) rotate(10.32)" style="fill:#455a64"></rect><polygon points="118.11 270.41 94.73 277.81 95.38 274.22 118.76 266.83 118.11 270.41" style="fill:#455a64"></polygon><polygon points="116.88 277.16 93.5 284.56 94.15 280.98 117.53 273.58 116.88 277.16" style="fill:#455a64"></polygon><path d="M127.79,332.44a5.42,5.42,0,1,1-4.36-6.3A5.43,5.43,0,0,1,127.79,332.44Z" style="fill:#455a64"></path><rect x="126.13" y="304.99" width="4.14" height="27.24" transform="translate(59.18 -17.82) rotate(10.32)" style="fill:#455a64"></rect><rect x="142.95" y="300.77" width="4.14" height="7.87" transform="matrix(0.98, 0.18, -0.18, 0.98, 56.96, -21.06)" style="fill:#455a64"></rect><polygon points="147.58 302.23 127.95 308.42 128.61 304.84 148.23 298.65 147.58 302.23" style="fill:#455a64"></polygon><polygon points="146.35 308.98 126.72 315.17 127.38 311.59 147 305.4 146.35 308.98" style="fill:#455a64"></polygon><path d="M395.75,166.72a5.42,5.42,0,1,1-4.36-6.3A5.41,5.41,0,0,1,395.75,166.72Z" style="fill:#455a64"></path><rect x="394.09" y="139.27" width="4.14" height="27.24" transform="translate(33.82 -68.53) rotate(10.32)" style="fill:#455a64"></rect><rect x="410.91" y="135.05" width="4.14" height="7.87" transform="translate(31.6 -71.78) rotate(10.33)" style="fill:#455a64"></rect><polygon points="415.54 136.52 395.91 142.71 396.57 139.12 416.19 132.93 415.54 136.52" style="fill:#455a64"></polygon><polygon points="414.31 143.27 394.68 149.46 395.34 145.88 414.96 139.69 414.31 143.27" style="fill:#455a64"></polygon></g></svg>